<svg width="36" height="36" viewBox="0 0 36 36" fill="none" xmlns="http://www.w3.org/2000/svg">
<rect width="36" height="36" fill="#313D39"/>
<path d="M18.0001 13C16.6421 13 16.4719 13.0058 15.9385 13.0301C15.4063 13.0544 15.0429 13.1389 14.7248 13.2625C14.396 13.3903 14.1172 13.5612 13.8392 13.8392C13.5612 14.1172 13.3903 14.396 13.2625 14.7248C13.1389 15.0429 13.0544 15.4063 13.0301 15.9385C13.0057 16.4719 13 16.6421 13 18.0001C13 19.358 13.0057 19.5283 13.0301 20.0616C13.0544 20.5938 13.1389 20.9573 13.2625 21.2753C13.3903 21.6041 13.5613 21.883 13.8392 22.161C14.1172 22.4389 14.396 22.6099 14.7248 22.7377C15.0429 22.8613 15.4063 22.9458 15.9385 22.9701C16.4719 22.9944 16.6421 23.0002 18.0001 23.0002C19.358 23.0002 19.5283 22.9944 20.0616 22.9701C20.5938 22.9458 20.9573 22.8613 21.2753 22.7377C21.6041 22.6099 21.883 22.4389 22.161 22.161C22.4389 21.883 22.6099 21.6041 22.7377 21.2753C22.8613 20.9573 22.9458 20.5938 22.9701 20.0616C22.9944 19.5283 23.0002 19.358 23.0002 18.0001C23.0002 16.6421 22.9944 16.4719 22.9701 15.9385C22.9458 15.4063 22.8613 15.0429 22.7377 14.7248C22.6099 14.396 22.4389 14.1172 22.161 13.8392C21.883 13.5612 21.6041 13.3903 21.2753 13.2625C20.9573 13.1389 20.5938 13.0544 20.0616 13.0301C19.5283 13.0058 19.358 13 18.0001 13ZM18.0001 13.9009C19.3352 13.9009 19.4933 13.906 20.0205 13.9301C20.5081 13.9523 20.7728 14.0338 20.949 14.1022C21.1824 14.1929 21.3489 14.3013 21.5239 14.4762C21.6989 14.6512 21.8072 14.8178 21.8979 15.0512C21.9664 15.2274 22.0479 15.4921 22.0701 15.9796C22.0941 16.5069 22.0993 16.665 22.0993 18.0001C22.0993 19.3352 22.0941 19.4933 22.0701 20.0205C22.0479 20.5081 21.9664 20.7728 21.8979 20.949C21.8072 21.1824 21.6989 21.3489 21.5239 21.5239C21.3489 21.6989 21.1824 21.8072 20.949 21.8979C20.7728 21.9664 20.508 22.0479 20.0205 22.0701C19.4934 22.0941 19.3353 22.0993 18.0001 22.0993C16.6649 22.0993 16.5068 22.0941 15.9796 22.0701C15.4921 22.0479 15.2274 21.9664 15.0512 21.8979C14.8178 21.8072 14.6512 21.6989 14.4763 21.5239C14.3013 21.3489 14.1929 21.1824 14.1022 20.949C14.0338 20.7728 13.9523 20.508 13.9301 20.0205C13.906 19.4933 13.9009 19.3352 13.9009 18.0001C13.9009 16.665 13.906 16.5069 13.9301 15.9796C13.9523 15.4921 14.0338 15.2274 14.1022 15.0512C14.1929 14.8178 14.3013 14.6512 14.4762 14.4763C14.6512 14.3013 14.8178 14.1929 15.0512 14.1022C15.2274 14.0338 15.4921 13.9523 15.9796 13.9301C16.5069 13.906 16.665 13.9009 18.0001 13.9009" fill="white"/>
<path d="M18.0005 19.6662C17.08 19.6662 16.3338 18.92 16.3338 17.9996C16.3338 17.079 17.08 16.3328 18.0005 16.3328C18.921 16.3328 19.6672 17.079 19.6672 17.9996C19.6672 18.92 18.921 19.6662 18.0005 19.6662ZM18.0005 15.4319C16.5824 15.4319 15.4329 16.5815 15.4329 17.9996C15.4329 19.4176 16.5824 20.5672 18.0005 20.5672C19.4185 20.5672 20.5681 19.4176 20.5681 17.9996C20.5681 16.5815 19.4185 15.4319 18.0005 15.4319ZM21.2695 15.3305C21.2695 15.6619 21.0009 15.9305 20.6695 15.9305C20.3382 15.9305 20.0695 15.6619 20.0695 15.3305C20.0695 14.9991 20.3382 14.7305 20.6695 14.7305C21.0009 14.7305 21.2695 14.9991 21.2695 15.3305Z" fill="white"/>
</svg>
